<?xml version="1.0" encoding="utf-8"?>
<svg id="visual" viewBox="0 0 960 300" width="960" height="300" version="1.1" xmlns="http://www.w3.org/2000/svg">
  <path d="M0 119L17.8 120.5C35.7 122 71.3 125 106.8 120C142.3 115 177.7 102 213.2 88.5C248.7 75 284.3 61 320 63.7C355.7 66.3 391.3 85.7 426.8 88.5C462.3 91.3 497.7 77.7 533.2 80.3C568.7 83 604.3 102 640 107.8C675.7 113.7 711.3 106.3 746.8 97C782.3 87.7 817.7 76.3 853.2 79.8C888.7 83.3 924.3 101.7 942.2 110.8L960 120L960 301L942.2 301C924.3 301 888.7 301 853.2 301C817.7 301 782.3 301 746.8 301C711.3 301 675.7 301 640 301C604.3 301 568.7 301 533.2 301C497.7 301 462.3 301 426.8 301C391.3 301 355.7 301 320 301C284.3 301 248.7 301 213.2 301C177.7 301 142.3 301 106.8 301C71.3 301 35.7 301 17.8 301L0 301Z" fill="#5043e1"/>
  <path d="M0 141L17.8 142.5C35.7 144 71.3 147 106.8 147.5C142.3 148 177.7 146 213.2 138.2C248.7 130.3 284.3 116.7 320 107.7C355.7 98.7 391.3 94.3 426.8 90C462.3 85.7 497.7 81.3 533.2 87.7C568.7 94 604.3 111 640 122.5C675.7 134 711.3 140 746.8 141.5C782.3 143 817.7 140 853.2 134.2C888.7 128.3 924.3 119.7 942.2 115.3L960 111L960 301L942.2 301C924.3 301 888.7 301 853.2 301C817.7 301 782.3 301 746.8 301C711.3 301 675.7 301 640 301C604.3 301 568.7 301 533.2 301C497.7 301 462.3 301 426.8 301C391.3 301 355.7 301 320 301C284.3 301 248.7 301 213.2 301C177.7 301 142.3 301 106.8 301C71.3 301 35.7 301 17.8 301L0 301Z" fill="#7c38d4"/>
  <path d="M0 121L17.8 117.8C35.7 114.7 71.3 108.3 106.8 114.3C142.3 120.3 177.7 138.7 213.2 147.8C248.7 157 284.3 157 320 155.3C355.7 153.7 391.3 150.3 426.8 146.2C462.3 142 497.7 137 533.2 129.7C568.7 122.3 604.3 112.7 640 118.7C675.7 124.7 711.3 146.3 746.8 148.2C782.3 150 817.7 132 853.2 127C888.7 122 924.3 130 942.2 134L960 138L960 301L942.2 301C924.3 301 888.7 301 853.2 301C817.7 301 782.3 301 746.8 301C711.3 301 675.7 301 640 301C604.3 301 568.7 301 533.2 301C497.7 301 462.3 301 426.8 301C391.3 301 355.7 301 320 301C284.3 301 248.7 301 213.2 301C177.7 301 142.3 301 106.8 301C71.3 301 35.7 301 17.8 301L0 301Z" fill="#982cc6"/>
  <path d="M0 142L17.8 144.3C35.7 146.7 71.3 151.3 106.8 156.7C142.3 162 177.7 168 213.2 170.2C248.7 172.3 284.3 170.7 320 166.8C355.7 163 391.3 157 426.8 159.3C462.3 161.7 497.7 172.3 533.2 169C568.7 165.7 604.3 148.3 640 140.2C675.7 132 711.3 133 746.8 139.7C782.3 146.3 817.7 158.7 853.2 164.2C888.7 169.7 924.3 168.3 942.2 167.7L960 167L960 301L942.2 301C924.3 301 888.7 301 853.2 301C817.7 301 782.3 301 746.8 301C711.3 301 675.7 301 640 301C604.3 301 568.7 301 533.2 301C497.7 301 462.3 301 426.8 301C391.3 301 355.7 301 320 301C284.3 301 248.7 301 213.2 301C177.7 301 142.3 301 106.8 301C71.3 301 35.7 301 17.8 301L0 301Z" fill="#ae1eb7"/>
  <path d="M0 199L17.8 193.8C35.7 188.7 71.3 178.3 106.8 170.7C142.3 163 177.7 158 213.2 158.8C248.7 159.7 284.3 166.3 320 170C355.7 173.7 391.3 174.3 426.8 178.7C462.3 183 497.7 191 533.2 191.3C568.7 191.7 604.3 184.3 640 182.5C675.7 180.7 711.3 184.3 746.8 183.2C782.3 182 817.7 176 853.2 174.3C888.7 172.7 924.3 175.3 942.2 176.7L960 178L960 301L942.2 301C924.3 301 888.7 301 853.2 301C817.7 301 782.3 301 746.8 301C711.3 301 675.7 301 640 301C604.3 301 568.7 301 533.2 301C497.7 301 462.3 301 426.8 301C391.3 301 355.7 301 320 301C284.3 301 248.7 301 213.2 301C177.7 301 142.3 301 106.8 301C71.3 301 35.7 301 17.8 301L0 301Z" fill="#be0fa8"/>
  <path d="M0 177L17.8 179C35.7 181 71.3 185 106.8 185.7C142.3 186.3 177.7 183.7 213.2 185.3C248.7 187 284.3 193 320 193.5C355.7 194 391.3 189 426.8 191.3C462.3 193.7 497.7 203.3 533.2 209.2C568.7 215 604.3 217 640 212.7C675.7 208.3 711.3 197.7 746.8 192C782.3 186.3 817.7 185.7 853.2 187.5C888.7 189.3 924.3 193.7 942.2 195.8L960 198L960 301L942.2 301C924.3 301 888.7 301 853.2 301C817.7 301 782.3 301 746.8 301C711.3 301 675.7 301 640 301C604.3 301 568.7 301 533.2 301C497.7 301 462.3 301 426.8 301C391.3 301 355.7 301 320 301C284.3 301 248.7 301 213.2 301C177.7 301 142.3 301 106.8 301C71.3 301 35.7 301 17.8 301L0 301Z" fill="#ca0199"/>
  <path d="M0 245L17.8 239.5C35.7 234 71.3 223 106.8 219.7C142.3 216.3 177.7 220.7 213.2 226.3C248.7 232 284.3 239 320 235.2C355.7 231.3 391.3 216.7 426.8 213C462.3 209.3 497.7 216.7 533.2 219.8C568.7 223 604.3 222 640 223.8C675.7 225.7 711.3 230.3 746.8 229.5C782.3 228.7 817.7 222.3 853.2 219.8C888.7 217.3 924.3 218.7 942.2 219.3L960 220L960 301L942.2 301C924.3 301 888.7 301 853.2 301C817.7 301 782.3 301 746.8 301C711.3 301 675.7 301 640 301C604.3 301 568.7 301 533.2 301C497.7 301 462.3 301 426.8 301C391.3 301 355.7 301 320 301C284.3 301 248.7 301 213.2 301C177.7 301 142.3 301 106.8 301C71.3 301 35.7 301 17.8 301L0 301Z" fill="#d3028a"/>
  <path d="M0 237L17.8 241.3C35.7 245.7 71.3 254.3 106.8 255.8C142.3 257.3 177.7 251.7 213.2 248.2C248.7 244.7 284.3 243.3 320 241.8C355.7 240.3 391.3 238.7 426.8 240.3C462.3 242 497.7 247 533.2 251.7C568.7 256.3 604.3 260.7 640 258.3C675.7 256 711.3 247 746.8 242.2C782.3 237.3 817.7 236.7 853.2 236.8C888.7 237 924.3 238 942.2 238.5L960 239L960 301L942.2 301C924.3 301 888.7 301 853.2 301C817.7 301 782.3 301 746.8 301C711.3 301 675.7 301 640 301C604.3 301 568.7 301 533.2 301C497.7 301 462.3 301 426.8 301C391.3 301 355.7 301 320 301C284.3 301 248.7 301 213.2 301C177.7 301 142.3 301 106.8 301C71.3 301 35.7 301 17.8 301L0 301Z" fill="#d9107c"/>
  <path d="M0 257L17.8 260C35.7 263 71.3 269 106.8 273.3C142.3 277.7 177.7 280.3 213.2 279.7C248.7 279 284.3 275 320 271.5C355.7 268 391.3 265 426.8 265.2C462.3 265.3 497.7 268.7 533.2 272.3C568.7 276 604.3 280 640 280C675.7 280 711.3 276 746.8 275.7C782.3 275.3 817.7 278.7 853.2 279.5C888.7 280.3 924.3 278.7 942.2 277.8L960 277L960 301L942.2 301C924.3 301 888.7 301 853.2 301C817.7 301 782.3 301 746.8 301C711.3 301 675.7 301 640 301C604.3 301 568.7 301 533.2 301C497.7 301 462.3 301 426.8 301C391.3 301 355.7 301 320 301C284.3 301 248.7 301 213.2 301C177.7 301 142.3 301 106.8 301C71.3 301 35.7 301 17.8 301L0 301Z" fill="#dd206f"/>
</svg>