<?xml version="1.0" encoding="utf-8"?>
<svg id="visual" viewBox="0 0 960 300" width="960" height="300" version="1.1" xmlns="http://www.w3.org/2000/svg">
  <path d="M0 118L17.8 108.2C35.7 98.3 71.3 78.7 106.8 79.7C142.3 80.7 177.7 102.3 213.2 108.5C248.7 114.7 284.3 105.3 320 93C355.7 80.7 391.3 65.3 426.8 62.8C462.3 60.3 497.7 70.7 533.2 80C568.7 89.3 604.3 97.7 640 97.5C675.7 97.3 711.3 88.7 746.8 85.8C782.3 83 817.7 86 853.2 94.2C888.7 102.3 924.3 115.7 942.2 122.3L960 129L960 301L942.2 301C924.3 301 888.7 301 853.2 301C817.7 301 782.3 301 746.8 301C711.3 301 675.7 301 640 301C604.3 301 568.7 301 533.2 301C497.7 301 462.3 301 426.8 301C391.3 301 355.7 301 320 301C284.3 301 248.7 301 213.2 301C177.7 301 142.3 301 106.8 301C71.3 301 35.7 301 17.8 301L0 301Z" fill="#5043e1"/>
  <path d="M0 85L17.8 87.3C35.7 89.7 71.3 94.3 106.8 98C142.3 101.7 177.7 104.3 213.2 109.7C248.7 115 284.3 123 320 127.3C355.7 131.7 391.3 132.3 426.8 126.5C462.3 120.7 497.7 108.3 533.2 106.3C568.7 104.3 604.3 112.7 640 120.2C675.7 127.7 711.3 134.3 746.8 132.5C782.3 130.7 817.7 120.3 853.2 109.2C888.7 98 924.3 86 942.2 80L960 74L960 301L942.2 301C924.3 301 888.7 301 853.2 301C817.7 301 782.3 301 746.8 301C711.3 301 675.7 301 640 301C604.3 301 568.7 301 533.2 301C497.7 301 462.3 301 426.8 301C391.3 301 355.7 301 320 301C284.3 301 248.7 301 213.2 301C177.7 301 142.3 301 106.8 301C71.3 301 35.7 301 17.8 301L0 301Z" fill="#7c38d4"/>
  <path d="M0 136L17.8 139.3C35.7 142.7 71.3 149.3 106.8 155C142.3 160.7 177.7 165.3 213.2 156.3C248.7 147.3 284.3 124.7 320 123.5C355.7 122.3 391.3 142.7 426.8 146.7C462.3 150.7 497.7 138.3 533.2 130C568.7 121.7 604.3 117.3 640 120.5C675.7 123.7 711.3 134.3 746.8 133.8C782.3 133.3 817.7 121.7 853.2 119.3C888.7 117 924.3 124 942.2 127.5L960 131L960 301L942.2 301C924.3 301 888.7 301 853.2 301C817.7 301 782.3 301 746.8 301C711.3 301 675.7 301 640 301C604.3 301 568.7 301 533.2 301C497.7 301 462.3 301 426.8 301C391.3 301 355.7 301 320 301C284.3 301 248.7 301 213.2 301C177.7 301 142.3 301 106.8 301C71.3 301 35.7 301 17.8 301L0 301Z" fill="#982cc6"/>
  <path d="M0 129L17.8 135.3C35.7 141.7 71.3 154.3 106.8 154.8C142.3 155.3 177.7 143.7 213.2 141.7C248.7 139.7 284.3 147.3 320 154.5C355.7 161.7 391.3 168.3 426.8 174C462.3 179.7 497.7 184.3 533.2 182.7C568.7 181 604.3 173 640 172C675.7 171 711.3 177 746.8 180.3C782.3 183.7 817.7 184.3 853.2 185.5C888.7 186.7 924.3 188.3 942.2 189.2L960 190L960 301L942.2 301C924.3 301 888.7 301 853.2 301C817.7 301 782.3 301 746.8 301C711.3 301 675.7 301 640 301C604.3 301 568.7 301 533.2 301C497.7 301 462.3 301 426.8 301C391.3 301 355.7 301 320 301C284.3 301 248.7 301 213.2 301C177.7 301 142.3 301 106.8 301C71.3 301 35.7 301 17.8 301L0 301Z" fill="#ae1eb7"/>
  <path d="M0 182L17.8 177.3C35.7 172.7 71.3 163.3 106.8 162.2C142.3 161 177.7 168 213.2 174.3C248.7 180.7 284.3 186.3 320 189.7C355.7 193 391.3 194 426.8 194.8C462.3 195.7 497.7 196.3 533.2 195.3C568.7 194.3 604.3 191.7 640 184.7C675.7 177.7 711.3 166.3 746.8 165C782.3 163.7 817.7 172.3 853.2 176.3C888.7 180.3 924.3 179.7 942.2 179.3L960 179L960 301L942.2 301C924.3 301 888.7 301 853.2 301C817.7 301 782.3 301 746.8 301C711.3 301 675.7 301 640 301C604.3 301 568.7 301 533.2 301C497.7 301 462.3 301 426.8 301C391.3 301 355.7 301 320 301C284.3 301 248.7 301 213.2 301C177.7 301 142.3 301 106.8 301C71.3 301 35.7 301 17.8 301L0 301Z" fill="#be0fa8"/>
  <path d="M0 225L17.8 219C35.7 213 71.3 201 106.8 199.5C142.3 198 177.7 207 213.2 208.5C248.7 210 284.3 204 320 204.5C355.7 205 391.3 212 426.8 213.3C462.3 214.7 497.7 210.3 533.2 210.2C568.7 210 604.3 214 640 216C675.7 218 711.3 218 746.8 214.5C782.3 211 817.7 204 853.2 200.3C888.7 196.7 924.3 196.3 942.2 196.2L960 196L960 301L942.2 301C924.3 301 888.7 301 853.2 301C817.7 301 782.3 301 746.8 301C711.3 301 675.7 301 640 301C604.3 301 568.7 301 533.2 301C497.7 301 462.3 301 426.8 301C391.3 301 355.7 301 320 301C284.3 301 248.7 301 213.2 301C177.7 301 142.3 301 106.8 301C71.3 301 35.7 301 17.8 301L0 301Z" fill="#ca0199"/>
  <path d="M0 214L17.8 213.5C35.7 213 71.3 212 106.8 210C142.3 208 177.7 205 213.2 204.8C248.7 204.7 284.3 207.3 320 212C355.7 216.7 391.3 223.3 426.8 224.7C462.3 226 497.7 222 533.2 220.3C568.7 218.7 604.3 219.3 640 219.3C675.7 219.3 711.3 218.7 746.8 219.5C782.3 220.3 817.7 222.7 853.2 222.3C888.7 222 924.3 219 942.2 217.5L960 216L960 301L942.2 301C924.3 301 888.7 301 853.2 301C817.7 301 782.3 301 746.8 301C711.3 301 675.7 301 640 301C604.3 301 568.7 301 533.2 301C497.7 301 462.3 301 426.8 301C391.3 301 355.7 301 320 301C284.3 301 248.7 301 213.2 301C177.7 301 142.3 301 106.8 301C71.3 301 35.7 301 17.8 301L0 301Z" fill="#d3028a"/>
  <path d="M0 253L17.8 251.3C35.7 249.7 71.3 246.3 106.8 242.8C142.3 239.3 177.7 235.7 213.2 235.7C248.7 235.7 284.3 239.3 320 243C355.7 246.7 391.3 250.3 426.8 250.3C462.3 250.3 497.7 246.7 533.2 242.7C568.7 238.7 604.3 234.3 640 235.7C675.7 237 711.3 244 746.8 247C782.3 250 817.7 249 853.2 245.3C888.7 241.7 924.3 235.3 942.2 232.2L960 229L960 301L942.2 301C924.3 301 888.7 301 853.2 301C817.7 301 782.3 301 746.8 301C711.3 301 675.7 301 640 301C604.3 301 568.7 301 533.2 301C497.7 301 462.3 301 426.8 301C391.3 301 355.7 301 320 301C284.3 301 248.7 301 213.2 301C177.7 301 142.3 301 106.8 301C71.3 301 35.7 301 17.8 301L0 301Z" fill="#d9107c"/>
  <path d="M0 284L17.8 280.5C35.7 277 71.3 270 106.8 267C142.3 264 177.7 265 213.2 268C248.7 271 284.3 276 320 274.7C355.7 273.3 391.3 265.7 426.8 261.5C462.3 257.3 497.7 256.7 533.2 260C568.7 263.3 604.3 270.7 640 271.8C675.7 273 711.3 268 746.8 265.7C782.3 263.3 817.7 263.7 853.2 264.7C888.7 265.7 924.3 267.3 942.2 268.2L960 269L960 301L942.2 301C924.3 301 888.7 301 853.2 301C817.7 301 782.3 301 746.8 301C711.3 301 675.7 301 640 301C604.3 301 568.7 301 533.2 301C497.7 301 462.3 301 426.8 301C391.3 301 355.7 301 320 301C284.3 301 248.7 301 213.2 301C177.7 301 142.3 301 106.8 301C71.3 301 35.7 301 17.8 301L0 301Z" fill="#dd206f"/>
</svg>